<?xml version="1.0" encoding="utf-8"?>
<!-- Generator: Adobe Illustrator 27.5.0, SVG Export Plug-In . SVG Version: 6.00 Build 0)  -->
<svg version="1.1" id="Livello_1" xmlns="http://www.w3.org/2000/svg" xmlns:xlink="http://www.w3.org/1999/xlink" x="0px" y="0px"
	 viewBox="0 0 24 24" style="enable-background:new 0 0 24 24;" xml:space="preserve">
<style type="text/css">
	.st0{fill:none;}
	.st1{fill:#5B6F8B;}
	.st2{fill:#E64B00;}
</style>
<g>
	<path class="st1" d="M9.6995039,13.4743881c0.1024199,0.0022516,0.2115917,0.0247612,0.3106346,0.0664043
		c0.2014618,0.0844116,0.3646574,0.2476072,0.4479437,0.4468184c0.0427685,0.1024189,0.0652781,0.2093401,0.0675297,0.3173876
		v4.6054935c0,0.455822-0.370286,0.826107-0.826108,0.826107s-0.826108-0.370285-0.826108-0.826107v-2.622385l-6.6538801,6.667387
		c-0.1575682,0.1564426-0.3657835,0.2431049-0.5875044,0.2431049s-0.4299362-0.0866623-0.5863789-0.2431049
		c-0.1575682-0.1564426-0.2442307-0.3646584-0.2442307-0.58638c0-0.2217197,0.0866625-0.4310608,0.2431053-0.5886288
		l6.667387-6.6538811H5.0895081c-0.4558225,0-0.8261075-0.370286-0.8261075-0.826108s0.370285-0.826108,0.8261075-0.826108
		H9.6995039z"/>
	<path class="st1" d="M1.6331476,0.8014015c0.2228465,0,0.4310616,0.0866625,0.5875043,0.2442307L8.875658,7.7130189V5.0906334
		c0-0.455822,0.370286-0.8261075,0.826108-0.8261075s0.826108,0.3702855,0.826108,0.8261075v4.6099958
		c-0.0022516,0.1035452-0.0247612,0.2104664-0.0664043,0.3106346c-0.085537,0.2048388-0.2442303,0.3635321-0.4468184,0.4479437
		c-0.1024189,0.0438948-0.2093401,0.0664043-0.315136,0.0675297H5.0917702c-0.4558225,0-0.826108-0.370285-0.826108-0.826108
		c0-0.455822,0.3702855-0.826107,0.826108-0.826107h2.622385L1.0467687,2.2206409
		c-0.1609446-0.16207-0.2464817-0.3702853-0.2453562-0.5897553C0.802538,1.4091647,0.8892004,1.202075,1.0456432,1.0467577
		C1.2077134,0.8858131,1.414803,0.8014015,1.6331476,0.8014015z"/>
	<path class="st1" d="M18.9113369,13.4743881c0.455822,0,0.826107,0.370286,0.826107,0.826108s-0.370285,0.826108-0.826107,0.826108
		h-2.6235123l6.6685123,6.6538811c0.3230152,0.3241405,0.3230152,0.8508682,0,1.1750088
		c-0.157568,0.1564426-0.3657837,0.2431049-0.5875034,0.2431049c-0.2217216,0-0.4299374-0.0866623-0.58638-0.2431049
		l-6.6550055-6.667387v2.622385c0,0.455822-0.370286,0.826107-0.826108,0.826107s-0.826108-0.370285-0.826108-0.826107v-4.6099958
		c0.0011263-0.1046705,0.0236359-0.209341,0.0664043-0.3083839c0.0832853-0.2048388,0.2464819-0.3669081,0.4468184-0.4501944
		c0.1024189-0.0427685,0.2082148-0.0652781,0.315136-0.0675297H18.9113369z"/>
	<path class="st1" d="M22.3668633,0.8014015c0.222847,0,0.4310627,0.0866625,0.5875053,0.2442307
		c0.3263912,0.3297678,0.3241386,0.8531194,0.0022507,1.1738833l-6.6696377,6.6550064h2.6235104
		c0.455822,0,0.826107,0.370285,0.826107,0.826107c0,0.4558229-0.370285,0.826108-0.826107,0.826108h-4.6099958
		c-0.1046705-0.0011253-0.209341-0.0236349-0.3083839-0.0664034c-0.2082148-0.0855379-0.3669081-0.2442312-0.449069-0.445693
		c-0.0450191-0.1046705-0.0675297-0.209341-0.068655-0.3162622V5.0906334c0-0.455822,0.370286-0.8261075,0.826108-0.8261075
		s0.826108,0.3702855,0.826108,0.8261075v2.6223855l6.6538811-6.6673865
		C21.9414291,0.8858131,22.1485195,0.8014015,22.3668633,0.8014015z"/>
</g>
</svg>
