<?xml version="1.0" encoding="utf-8"?>
<!-- Generator: Adobe Illustrator 27.5.0, SVG Export Plug-In . SVG Version: 6.00 Build 0)  -->
<svg version="1.1" id="Livello_1" xmlns="http://www.w3.org/2000/svg" xmlns:xlink="http://www.w3.org/1999/xlink" x="0px" y="0px"
	 viewBox="0 0 24 24" style="enable-background:new 0 0 24 24;" xml:space="preserve">
<style type="text/css">
	.st0{fill:none;}
	.st1{fill:#5B6F8B;}
	.st2{fill:#E64B00;}
</style>
<g>
	<g>
		<g>
			<g>
				<path class="st1" d="M0.8157332,16.2785645c-0.0006387,0.2913704,0.1040966,0.5440369,0.3112718,0.7510014
					c0.2657831,0.2654018,0.7841473,0.7804985,1.411487,1.4038086c1.5733845,1.5633678,3.7282379,3.7045116,4.4556446,4.447113
					c0.3132677,0.3197613,0.6466494,0.4623489,1.0809908,0.4623489h0.0048361
					c2.0998554-0.0052223,6.0120516-0.0060711,9.155508-0.0067501c2.444294-0.0005074,4.5552692-0.0009747,5.0473843-0.0033493
					c0.0949116-0.0004692,0.3363705-0.0187607,0.5288639-0.1783619c0.2529087-0.2095547,0.3806858-0.5010109,0.3797283-0.8661766
					c-0.0076656-2.854805-0.0062618-12.6084595-0.0050297-14.573597c0.0001926-0.3023839-0.0981579-0.5530143-0.292305-0.7449546
					c-0.4487038-0.443697-1.5740833-1.5613971-2.7655411-2.7447023c-1.2922153-1.2833929-2.6284218-2.6104722-3.1737709-3.1495264
					c-0.284708-0.2814403-0.6120281-0.418254-1.0007038-0.418254L15.942811,0.657207
					c-0.8511581,0.0060022-3.4711514,0.009441-7.1882715,0.009441c-2.6030698,0-5.4148402-0.0018249-6.837616-0.0044568H1.9125524
					c-0.1338881,0-0.5413666,0-0.823782,0.2852811c-0.1894366,0.1913469-0.28369,0.4683333-0.2801258,0.8232316
					C0.8326649,4.1549449,0.8209941,13.8797855,0.8157332,16.2785645z M20.2591553,6.759201
					c-0.7794666,0.0010266-1.9276581,0.0025492-3.2113647,0.0042944c0,0.0002084,0,0.0004191,0,0.0006275h-0.0056114V6.763504
					c0.0018597-0.0000029,0.0037537-0.0000057,0.0056114-0.0000086c-0.0014191-1.7035089-0.0027142-3.0058978-0.0038319-3.1930304
					L20.2591553,6.759201z M21.4689426,20.3529148c-1.3069515-1.2819309-3.9459572-3.8720112-4.4117413-4.3416176
					c-0.00284-0.9070911-0.0055771-4.4429646-0.0080185-7.5180283h0.7005577V8.4926815
					c0.2592392,0.0000143,0.5189457,0.0000257,0.7794628,0.0000401l2.9393749,0.0001907
					C21.468811,11.8410854,21.4688969,17.9363956,21.4689426,20.3529148z M8.6689262,17.2222443l7.1224356-0.0013313
					c0.0021381,0,0.0035982,0,0.0035982,0c0.0479946,0,0.0582657,0.0042038,0.0915356,0.0374737
					c0.9816456,0.9822369,3.212204,3.2018929,4.3781586,4.3617306c-2.1462021-0.0001278-11.59554-0.0003395-11.59554-0.0003395
					s0.0000458-1.8035851-0.0001879-4.1451721V17.2222443z M8.6659317,8.4907475
					c2.2828903,0.0011158,4.4737864,0.0015459,6.6687126,0.0017595c0,0.0002117,0,0.0004168,0,0.0006275
					c0.0005932,0,0.0011864,0,0.0017796,0c0.000679,3.0305166,0.0013065,6.1432571,0.0011921,6.6296654l-0.0000401,0.3851976
					l-6.6689034-0.0002422C8.6682558,12.9356117,8.6674576,10.1579752,8.6659317,8.4907475z M3.754349,2.390131
					c2.7740862-0.0022926,10.1972866-0.0083177,11.5805979-0.0086997c0.000103,0.2620192,0.0005703,2.1419847,0.0010843,4.3844166
					c0.000536,0,0.0010605-0.0000029,0.0015965-0.0000029v0.0006247c-0.000536,0-0.0010605,0.0000029-0.0015965,0.0000029
					c0-0.0002055,0-0.0004191,0-0.0006247c-3.1382895,0.0043602-6.4664421,0.0092816-7.104948,0.0113916
					c-0.0590725,0-0.0677299-0.0086799-0.0850439-0.0259933C7.7418714,6.3460798,5.0773535,3.7024856,3.754349,2.390131z
					 M3.7483211,17.2231636l3.2112565-0.0005989H6.961277v0.0004501c-0.0005617,0-0.0011377,0-0.0016994,0
					c0.0014,1.2940025,0.0020986,2.4384575,0.0014629,3.210535c-0.0000029,0.0026684-0.0000029,0.0054798-0.0000057,0.0081406
					C5.907671,19.3890476,4.5651855,18.0427837,3.7483211,17.2231636z M2.5374312,15.5075302
					C2.5376022,12.1956415,2.5375166,6.0360799,2.5374739,3.595566c1.2840087,1.2734616,3.8524053,3.8227623,4.4058647,4.3877239
					c0.0012746,0.0071716,0.0022497,0.0153837,0.0022926,0.0223842c0.0008068,0.5954714,0.0022497,1.454052,0.0039463,2.4537125
					c0.002449,1.4699268,0.0055089,3.302784,0.007884,5.0483055L2.5374312,15.5075302z"/>
			</g>
		</g>
	</g>
	<polygon class="st2" points="2.5374739,3.595566 6.9456315,8.0056744 6.9610348,20.4416904 2.5374312,15.9420795 	"/>
	<polygon class="st2" points="3.754349,2.390131 8.146039,6.751246 20.2591553,6.759201 15.7876072,2.3814313 	"/>
	
		<rect x="8.6691141" y="8.4929123" transform="matrix(-1 -4.490820e-11 4.490820e-11 -1 30.1376915 30.11269)" class="st2" width="12.7994633" height="13.1268654"/>
</g>
</svg>
