<?xml version="1.0" encoding="utf-8"?>
<!-- Generator: Adobe Illustrator 27.5.0, SVG Export Plug-In . SVG Version: 6.00 Build 0)  -->
<svg version="1.1" id="Livello_1" xmlns="http://www.w3.org/2000/svg" xmlns:xlink="http://www.w3.org/1999/xlink" x="0px" y="0px"
	 viewBox="0 0 24 24" style="enable-background:new 0 0 24 24;" xml:space="preserve">
<style type="text/css">
	.st0{fill:none;}
	.st1{fill:#5B6F8B;}
	.st2{fill:#E64B00;}
	.st3{fill:#FFFFFF;}
	.st4{fill:#D0D0D0;}
	.st5{display:none;}
	.st6{display:inline;fill:#5B6F8B;}
</style>
<g>
	<path class="st1" d="M20.0020523,16.8788624l-0.125246-0.0604019l-5.4015045-1.9541702l-0.8660526-0.3064489l-0.1057034-0.0257597
		H13.460021c-0.1128082,0-0.2167349,0.0444126-0.2993431,0.1287975c-0.0630665,0.0639544-0.1589985,0.2034111-0.0728369,0.4903193
		l1.7365465,4.8028173c0.1687698,0.467226,0.3410921,0.9326725,0.5134144,1.3990097
		c0.0941553,0.2522659,0.2647009,0.3046722,0.389946,0.3046722c0.0577364,0,0.1172495-0.0106583,0.1829815-0.0328655
		c0,0,2.0429964-0.7621269,2.8291063-1.0525875c0.1749859-0.0639553,0.2922363-0.1794281,0.3561916-0.3535271l0.816309-2.1797886
		c0.065733-0.1758747,0.2345009-0.6528702,0.2345009-0.6528702c0.0826092-0.222065-0.0151005-0.3801746-0.0808315-0.4547882
		L20.0020523,16.8788624z M18.2557335,17.1275749l-1.2471161,0.2762489
		c-0.1385689,0.0310898-0.2762489,0.0648422-0.3952751,0.0977077l-1.5171471-1.5189228L18.2557335,17.1275749z
		 M15.6469164,19.7434998l-1.1485195-3.1684227l1.5313597,1.4789524L15.6469164,19.7434998z M18.9636765,18.1721687
		l-0.5826988,1.6521626l-2.0589848,0.7585735l0.3934994-1.7898426l0.6768532,0.6759644
		c0.0595131,0.0595131,0.1190262,0.1030388,0.1794281,0.1323509l0.1190281,0.041748h0.0595131
		c0.1101437,0,0.2140694-0.0461903,0.2922363-0.1287975c0.1305752-0.1350155,0.1572227-0.317997,0.071949-0.4716663
		c-0.030201-0.0559597-0.0701714-0.1101437-0.1225796-0.1643276l-0.6804066-0.6804066l1.7880669-0.3943863L18.9636765,18.1721687z"
		/>
	<path class="st1" d="M10.5340948,14.524087c-0.0444126,0-0.0888252,0.0071058-0.2069645,0.0435247l-4.8028178,1.7365475
		c-0.4672246,0.1687698-0.9335604,0.3402023-1.3990083,0.5134144c-0.2655897,0.0994835-0.3615217,0.3046722-0.2718074,0.5773678
		c0,0,0.8171985,2.1877823,1.0516989,2.8246651c0.065731,0.1758747,0.1812048,0.2922363,0.3544154,0.3561916l2.1789002,0.8163109
		l0.6573119,0.2362766l0.1190271,0.0293121H8.259263c0.1057024,0,0.2060757-0.0399723,0.2895727-0.1154728l0.0444126-0.0506306
		l0.065731-0.1341286l1.9550591-5.4032812l0.3064499-0.8651648c0.0577364-0.1643276,0.0204296-0.3277674-0.1030388-0.4485703
		C10.7401714,14.5640593,10.6424627,14.524087,10.5340948,14.524087z M8.901475,15.9790564
		c-0.5125265,0.5151892-1.0126162,1.0277147-1.4771757,1.5304708l-1.6894693-0.3828411L8.901475,15.9790564z M7.3159318,20.4470005
		L5.65311,19.8607483l-0.7576852-2.0589848l1.7889543,0.3934994l-0.6724124,0.6741886
		c-0.0595131,0.0577374-0.1048145,0.1190262-0.135015,0.1820927c-0.078167,0.1616631-0.0461898,0.3410931,0.087049,0.4725552
		c0.0826082,0.0772781,0.1803169,0.1190262,0.2833548,0.1190262l0.1350155-0.0186539l0.0595136-0.0337524
		c0.0559602-0.0319786,0.1110325-0.0737267,0.1563334-0.119915l0.6821833-0.6795197l0.3943872,1.7880669L7.3159318,20.4470005z
		 M8.3507538,19.7355042l-0.2762489-1.2488918c-0.0266476-0.1190262-0.0559597-0.2380543-0.095932-0.3961639l1.5171471-1.5153713
		L8.3507538,19.7355042z"/>
	<path class="st1" d="M3.9971969,7.1211376l0.1252444,0.0604014l5.4015055,1.9541707l0.8660526,0.3064489l0.1057024,0.0257597
		h0.0435247c0.1128092,0,0.2167358-0.0444126,0.2993441-0.1287975c0.0630665-0.0639544,0.1589985-0.2034111,0.0728369-0.4903193
		L9.174861,4.0459838C9.0060911,3.5787592,8.8337688,3.1133113,8.6614466,2.646975
		c-0.0941553-0.2522657-0.2647009-0.304673-0.389946-0.304673c-0.0577364,0-0.1172504,0.0106592-0.1829815,0.0328658
		c0,0-2.0429964,0.7621264-2.8291059,1.0525873C5.0844264,3.4917097,4.967176,3.6071835,4.9032211,3.7812822L4.0869112,5.9610705
		C4.0211797,6.1369462,3.8524106,6.6139412,3.8524106,6.6139412C3.7698023,6.8360062,3.867511,6.9941163,3.9332421,7.0687299
		L3.9971969,7.1211376z M5.7435145,6.8724246l1.2471161-0.2762485C7.129199,6.5650868,7.2668796,6.531333,7.3859062,6.4984674
		l1.5171471,1.5189238L5.7435145,6.8724246z M8.3523321,4.2565012L9.5008516,7.424922L7.9694924,5.9459701L8.3523321,4.2565012z
		 M5.0355721,5.8278317l0.5826979-1.6521626l2.0589852-0.7585733L7.2837563,5.2069387L6.6069026,4.530973
		C6.5473895,4.4714599,6.4878759,4.4279351,6.4274745,4.3986225l-0.1190267-0.041748H6.2489343
		c-0.1101441,0-0.2140703,0.0461893-0.2922373,0.1287975C5.8261228,4.6206875,5.7994752,4.803669,5.884748,4.9573379
		C5.9149489,5.013298,5.9549203,5.067482,6.0073276,5.1216655L6.6877341,5.802072L4.8996682,6.1964593L5.0355721,5.8278317z"/>
	<path class="st1" d="M13.4651527,9.475913c0.0444136,0,0.0888262-0.0071058,0.2069645-0.0435247l4.8028183-1.736547
		c0.4672241-0.1687694,0.9335613-0.3402033,1.3990078-0.5134139C20.139534,7.082942,20.235466,6.8777542,20.145752,6.6050587
		c0,0-0.8171997-2.1877828-1.0516987-2.8246646c-0.065731-0.1758754-0.1812057-0.2922373-0.3544159-0.3561921l-2.1788998-0.8163102
		l-0.6573124-0.2362771l-0.1190271-0.0293126h-0.0444126c-0.1057034,0-0.2060766,0.0399718-0.2895727,0.1154737
		l-0.0444126,0.0506308l-0.065732,0.1341271L13.38521,8.0458155l-0.3064499,0.8651648
		c-0.0577364,0.1643276-0.0204296,0.3277674,0.1030378,0.4485703C13.2590771,9.4359407,13.3567858,9.475913,13.4651527,9.475913z
		 M15.0977736,8.0209436c0.5125256-0.5151901,1.0126162-1.0277157,1.4771757-1.5304704l1.6894684,0.3828397L15.0977736,8.0209436z
		 M16.6833172,3.5529997l1.6628208,0.586251l0.7576847,2.0589852l-1.7889538-0.3934989l0.6724129-0.6741891
		c0.0595131-0.0577369,0.1048145-0.1190267,0.1350155-0.1820931c0.078167-0.1616631,0.0461884-0.3410916-0.0870495-0.4725537
		c-0.0826092-0.0772786-0.1803169-0.1190267-0.2833557-0.1190267l-0.1350155,0.0186534l-0.0595131,0.0337539
		c-0.0559597,0.0319772-0.1110325,0.0737252-0.1563339,0.119915L16.7188473,5.208715l-0.3943882-1.7880659L16.6833172,3.5529997z
		 M15.6484947,4.2644954l0.2762489,1.2488928c0.0266476,0.1190267,0.0559597,0.2380533,0.095932,0.3961635L14.5035286,7.424922
		L15.6484947,4.2644954z"/>
	<path class="st1" d="M20.9316635,12.7349672c-0.0945644,0.1005411-0.1502056,0.1610928-0.2073421,0.220293
		c-0.2697468,0.2792807-0.5525837,0.5473185-0.8054657,0.8410425c-0.1748257,0.2030745-0.1389637,0.4711828,0.0413399,0.6581764
		c0.190836,0.1978083,0.4521141,0.2252026,0.6783848,0.0644655c0.0841026-0.0596981,0.1639385-0.1276503,0.2368011-0.2007971
		c0.5851707-0.5872355,1.1700592-1.1747551,1.7511044-1.7660465c0.2550163-0.2594995,0.2485409-0.5296717-0.0123825-0.7940807
		c-0.1880589-0.1904793-0.3838043-0.3732748-0.5726471-0.5630426c-0.4324055-0.4346104-0.8567677-0.8774738-1.2960033-1.3051815
		c-0.2772865-0.2699585-0.6369724-0.2348795-0.8492241,0.0596981c-0.1610947,0.2236376-0.1437321,0.4549599,0.0812569,0.7012959
		c0.2842617,0.3112288,0.5830383,0.6092224,0.9178181,0.95681c-0.2331715,0-0.4014511-0.0000706-0.5696602,0
		c-1.7445583,0.0006409-3.4889736,0.001708-5.233532,0.0039854v1.1201801
		c1.8643112,0.0033436,3.7287636,0.0033436,5.5930748,0.0032015C20.7500782,12.7349672,20.81497,12.7349672,20.9316635,12.7349672z"
		/>
	<path class="st1" d="M3.0683362,11.5948639c0.094564-0.1005411,0.1502066-0.1610928,0.2073433-0.220293
		c0.2697453-0.2792807,0.5525832-0.5473185,0.8054652-0.8410425c0.1748257-0.2030745,0.1389642-0.4711828-0.0413404-0.6581764
		C3.8489687,9.6775436,3.5876906,9.6501493,3.3614204,9.8108864c-0.0841043,0.0596981-0.1639392,0.1276503-0.2368011,0.2007971
		c-0.5851719,0.5872355-1.1700593,1.1747551-1.7511044,1.7660465c-0.2550166,0.2594995-0.2485415,0.5296717,0.0123808,0.7940807
		c0.1880605,0.1904802,0.3838056,0.3732748,0.5726489,0.5630426c0.4324039,0.4346104,0.8567673,0.8774738,1.296002,1.3051815
		c0.277288,0.2699585,0.6369724,0.2348795,0.849225-0.0596981c0.1610932-0.2236376,0.1437316-0.4549599-0.0812578-0.7012959
		c-0.284261-0.3112288-0.5830374-0.6092224-0.9178178-0.95681c0.2331722,0,0.4014518,0.0000706,0.5696604,0
		c1.7445579-0.0006409,3.4889741-0.001708,5.233532-0.0039845v-1.1201801
		c-1.8643107-0.0033445-3.7287636-0.0033445-5.5930738-0.0032024C3.2499218,11.5948639,3.185029,11.5948639,3.0683362,11.5948639z"
		/>
</g>
</svg>
