<?xml version="1.0" encoding="utf-8"?>
<!-- Generator: Adobe Illustrator 27.5.0, SVG Export Plug-In . SVG Version: 6.00 Build 0)  -->
<svg version="1.1" id="Livello_1" xmlns="http://www.w3.org/2000/svg" xmlns:xlink="http://www.w3.org/1999/xlink" x="0px" y="0px"
	 viewBox="0 0 24 24" style="enable-background:new 0 0 24 24;" xml:space="preserve">
<style type="text/css">
	.st0{fill:none;}
	.st1{fill:#5B6F8B;}
	.st2{fill:#E64B00;}
</style>
<g>
	<path class="st1" d="M11.9993086,16.0855999c2.2564697-0.0013428,4.0845938-1.8295279,4.0845938-4.0852652h0.0014038
		C16.0839024,9.743865,14.2557783,7.9150076,11.99998,7.9143362C9.7435713,7.9150076,7.9147134,9.743865,7.9147134,12.0003347
		C7.9147134,14.2567434,9.7428999,16.0849285,11.9993086,16.0855999z M11.99998,9.276824
		c1.5040894,0.0026855,2.7201538,1.21875,2.7228394,2.7228394h0.0007324
		c-0.0040894,1.5046997-1.2194824,2.7200928-2.7235718,2.7228394c-1.5033569-0.0027466-2.7207642-1.2181396-2.7235107-2.722168
		C9.2792158,10.4969168,10.496623,9.2795095,11.99998,9.276824z"/>
	<path class="st1" d="M22.6793003,11.6808157c-0.0397339-0.1002197-0.0978394-0.1901855-0.1710815-0.2649536l-3.2597046-3.2597656
		c-0.3223877-0.3223877-0.8460083-0.3223267-1.168335,0c-0.314209,0.314209-0.3167114,0.8170776-0.0181885,1.1408081
		l2.7191162,2.7191772l-2.7825928,2.7826538c-0.2216187,0.3217773-0.2043457,0.7591553,0.081665,1.045166
		c0.3223267,0.3222647,0.8460083,0.3222647,1.168335,0l3.2581177-3.2581787
		c0.0748291-0.076416,0.1329346-0.1663208,0.1751099-0.2722168C22.7660923,12.1129446,22.7660923,11.8885794,22.6793003,11.6808157z
		"/>
	<path class="st1" d="M3.2188518,11.9839163l2.7826536-2.7826538C6.223063,8.8794851,6.20579,8.4421072,5.9197793,8.1560965
		c-0.3222656-0.3223267-0.8459473-0.3223267-1.1682739,0l-3.2581787,3.2581177
		c-0.0747681,0.0764771-0.1328735,0.1663818-0.1750488,0.2722168c-0.0844116,0.2005615-0.0844116,0.4249878,0.0023804,0.6326904
		c0.0397949,0.1002808,0.0978394,0.1902466,0.1710815,0.2650146l3.2597656,3.2597656
		c0.3223267,0.3223257,0.8460083,0.3222647,1.1682739,0c0.314209-0.314209,0.3167114-0.8170776,0.0182495-1.1408691
		L3.2188518,11.9839163z"/>
	<path class="st1" d="M14.7030439,18.0619793l-2.7191162,2.7191162l-2.7826538-2.7825928
		c-0.3217773-0.2216187-0.7591553-0.2043457-1.045166,0.081665c-0.3223271,0.3223267-0.3223271,0.8460083,0,1.168335
		l3.2581177,3.2581177c0.0764771,0.0748291,0.1663818,0.1329346,0.2722168,0.1751099
		c0.2005615,0.0843506,0.4249878,0.0843506,0.6326904-0.0024414c0.1002808-0.0397339,0.1902466-0.0978394,0.2650146-0.1710815
		l3.2597656-3.2597046c0.3223257-0.3223877,0.3222647-0.8460083,0-1.168335
		C15.5297041,17.7659588,15.0268354,17.7634563,14.7030439,18.0619793z"/>
	<path class="st1" d="M12.5857344,1.4933156c-0.076416-0.0747681-0.1663208-0.1328735-0.2722168-0.1750488
		c-0.2005005-0.0844116-0.4249268-0.0844116-0.6326904,0.0023804c-0.1002197,0.0397949-0.1901855,0.0978394-0.2649536,0.1710815
		L8.1561079,4.7514944c-0.3223882,0.3223267-0.3223271,0.8460083,0,1.1682739
		c0.314209,0.314209,0.8170776,0.3167114,1.1408691,0.0182495l2.7191162-2.7191775l2.7826538,2.782654
		c0.3217773,0.2215576,0.7591553,0.2042847,1.045166-0.0817261c0.3222647-0.3222656,0.3222647-0.8459473,0-1.1682739
		L12.5857344,1.4933156z"/>
</g>
</svg>
