<?xml version="1.0" encoding="utf-8"?>
<!-- Generator: Adobe Illustrator 27.5.0, SVG Export Plug-In . SVG Version: 6.00 Build 0)  -->
<svg version="1.1" id="Livello_1" xmlns="http://www.w3.org/2000/svg" xmlns:xlink="http://www.w3.org/1999/xlink" x="0px" y="0px"
	 viewBox="0 0 24 24" style="enable-background:new 0 0 24 24;" xml:space="preserve">
<style type="text/css">
	.st0{fill:none;}
	.st1{fill:#5B6F8B;}
	.st2{fill:#E64B00;}
</style>
<g>
	<path class="st1" d="M15.9200354,23.3428364c-2.0998535-0.0052204-6.0120525-0.0060692-9.1555099-0.0067482
		c-2.4442911-0.0005093-4.5552635-0.0009766-5.0473804-0.0033512c-0.0949098-0.0004673-0.3363746-0.0187588-0.5288676-0.1783619
		c-0.2529017-0.2095528-0.3806786-0.501009-0.3797238-0.8661766c0.0076599-2.8548031,0.0062594-12.6084576,0.0050287-14.573596
		C0.8133911,7.4122195,0.9117382,7.1615882,1.1058862,6.9696469C1.5545908,6.52595,2.6799703,5.4082518,3.8714235,4.224946
		c1.2922194-1.2833924,2.6284239-2.6104734,3.1737783-3.1495256C7.3299098,0.7939799,7.6572242,0.657164,8.0459023,0.657164
		l0.0112877,0.0000424c0.8511534,0.0060048,3.4711542,0.0094422,7.1882715,0.0094422
		c2.6030684,0,5.4148397-0.0018247,6.837615-0.0044559h0.0043716c0.1338882,0,0.5413647,0,0.823782,0.2852809
		c0.1894379,0.1913472,0.2836895,0.4683316,0.2801247,0.8232298c-0.0240192,2.3842435-0.0123501,12.1090841-0.0070877,14.5078611
		c0.0006371,0.2913723-0.1040974,0.5440388-0.3112736,0.7510033c-0.2657795,0.2653999-0.7841454,0.7804966-1.4114876,1.4038067
		c-1.5733833,1.5633698-3.7282352,3.7045135-4.4556427,4.447113c-0.3132668,0.3197613-0.6466503,0.4623489-1.0809898,0.4623489
		H15.9200354z M21.4625683,15.5075331c-0.0001698-3.3118896-0.0000858-9.4714508-0.0000439-11.9119663
		c-1.284008,1.2734623-3.8524036,3.822763-4.4058647,4.387723c-0.0012722,0.0071721-0.0022488,0.0153837-0.0022907,0.0223851
		c-0.0008068,0.5954723-0.0022488,1.454052-0.0039463,2.4537125c-0.0052204,3.1314478-0.0131989,7.9100771-0.0114594,9.9823046
		c1.0533657-1.0526428,2.3958511-2.3989048,3.2127151-3.2185287C19.8112278,17.2240982,8.20504,17.2209148,8.20504,17.2209148
		c-0.0479965,0-0.0582657,0.0042019-0.0915365,0.0374718c-0.9816456,0.9822407-3.2122045,3.2018929-4.3781533,4.3617306
		c2.1461945-0.0001278,11.5955353-0.0003395,11.5955353-0.0003395s-0.0002546-9.3767748,0.0031834-13.1290293
		C11.9483824,8.492404,8.7650347,8.4925518,5.4707994,8.4927216l-2.939379,0.0001917
		c-0.0002334,3.3481722-0.0003183,9.4434843-0.0003607,11.8600016c1.3069448-1.281929,3.9459572-3.8720112,4.4117422-4.3416157
		C6.947937,14.3700161,6.9527321,4.1222706,6.9560423,3.5704658L3.7408457,6.7592034
		C6.6575851,6.7630439,14.7355843,6.7738228,15.768918,6.7772388l0,0c0.0590715,0,0.067729-0.0086784,0.085043-0.0259924
		c0.4041681-0.4051647,3.0686846-3.0487599,4.3916922-4.3611155C17.4715633,2.3878393,10.0483637,2.3818133,8.6650543,2.3814316
		C8.6647997,3.0474334,8.6621685,14.1660233,8.6623802,15.1228018l0.0000429,0.3851976L21.4625683,15.5075331z"/>
	<polygon class="st2" points="3.7408457,6.7592034 15.853961,6.7512465 20.2456532,2.390131 8.0263414,2.390131 	"/>
</g>
</svg>
