<?xml version="1.0" encoding="utf-8"?>
<!-- Generator: Adobe Illustrator 27.5.0, SVG Export Plug-In . SVG Version: 6.00 Build 0)  -->
<svg version="1.1" id="Livello_1" xmlns="http://www.w3.org/2000/svg" xmlns:xlink="http://www.w3.org/1999/xlink" x="0px" y="0px"
	 viewBox="0 0 24 24" style="enable-background:new 0 0 24 24;" xml:space="preserve">
<style type="text/css">
	.st0{fill:none;}
	.st1{fill:#5B6F8B;}
	.st2{fill:#E64B00;}
</style>
<g>
	<path class="st2" d="M1.9493769,3.2003913L5.84622,7.0989609c0.1217847,0.1218386,0.1902924,0.2869935,0.190506,0.4592614
		l0.0157194,12.6914787c0.0007401,0.5974369-0.7365212,0.8800602-1.1353312,0.4352226l-3.912607-4.3641815
		c-0.1070317-0.1193848-0.166223-0.2740803-0.1662225-0.4344187L0.8383287,3.6604559
		C0.8383308,3.0806069,1.5394526,2.7902853,1.9493769,3.2003913z"/>
	<path class="st2" d="M16.7258472,0.8297749l3.9939327,3.97789c0.3739796,0.372478,0.109951,1.0111217-0.4178734,1.0107751
		l-12.60639-0.0082855C7.539464,5.8100519,7.3897719,5.7482963,7.2790413,5.6383362L3.29071,1.6777753
		C2.9161575,1.3058306,3.1792934,0.6667614,3.7071497,0.6663826l12.6007862-0.0090438
		C16.4645748,0.6572264,16.6148643,0.7192381,16.7258472,0.8297749z"/>
	<path class="st2" d="M22.3091373,23.3428364H8.9212875c-0.4708672,0-0.8525801-0.3817139-0.8525801-0.852581V8.7163305
		c0-0.4708662,0.3817129-0.8525791,0.8525801-0.8525791h13.3878498c0.4708652,0,0.8525791,0.3817129,0.8525791,0.8525791v13.7739248
		C23.1617165,22.9611225,22.7800026,23.3428364,22.3091373,23.3428364z"/>
</g>
</svg>
