<?xml version="1.0" encoding="utf-8"?>
<!-- Generator: Adobe Illustrator 27.5.0, SVG Export Plug-In . SVG Version: 6.00 Build 0)  -->
<svg version="1.1" id="Livello_1" xmlns="http://www.w3.org/2000/svg" xmlns:xlink="http://www.w3.org/1999/xlink" x="0px" y="0px"
	 viewBox="0 0 24 24" style="enable-background:new 0 0 24 24;" xml:space="preserve">
<style type="text/css">
	.st0{fill:none;}
	.st1{fill:#5B6F8B;}
	.st2{fill:#E64B00;}
</style>
<path class="st1" d="M10,17.7192383c-0.1923828,0-0.3730469-0.0751953-0.5087891-0.2109375
	c-0.140625-0.1425781-0.2138672-0.3222656-0.2138672-0.5136719c0.0009766-0.1914062,0.0761719-0.3710938,0.2119141-0.5058594
	l0.8476562-0.8271484l-0.5957031-0.0664062c-4.4609375-0.4931641-7.4580078-2.3408203-7.4580078-4.5976562
	c0-2.6884766,4.1777344-4.7167969,9.7167969-4.7167969s9.7167969,2.0283203,9.7167969,4.7167969
	c0,1.9150391-2.0888672,3.515625-5.5869141,4.2822266c-0.0527344,0.0117188-0.1025391,0.0166016-0.1523438,0.0166016
	c-0.3359375,0-0.6308594-0.2382812-0.7001953-0.5673828c-0.0771484-0.4023438,0.1787109-0.7783203,0.5664062-0.8535156
	c2.6171875-0.5683594,4.4394531-1.7509766,4.4394531-2.8779297c0-1.5498047-3.5419922-3.2832031-8.2832031-3.2832031
	s-8.2832031,1.7333984-8.2832031,3.2832031c0,1.3144531,2.4306641,2.6464844,5.6542969,3.0996094l0.9091797,0.1279297
	l-0.7998047-0.7275391c-0.1259766-0.1269531-0.2011719-0.3085938-0.2011719-0.5009766s0.0751953-0.3730469,0.2109375-0.5078125
	C9.6269531,12.3520508,9.8076172,12.2768555,10,12.2768555s0.3730469,0.0751953,0.5087891,0.2109375l2.0009766,2
	c0.0605469,0.0634766,0.1113281,0.1435547,0.1455078,0.2324219c0.0732422,0.1777344,0.0732422,0.3769531,0.0019531,0.5498047
	c-0.0361328,0.0927734-0.0869141,0.1728516-0.1533203,0.2421875l-1.9941406,1.9951172
	C10.3701172,17.6459961,10.1904297,17.7192383,10,17.7192383z"/>
</svg>
