<?xml version="1.0" encoding="utf-8"?>
<!-- Generator: Adobe Illustrator 27.5.0, SVG Export Plug-In . SVG Version: 6.00 Build 0)  -->
<svg version="1.1" id="Livello_1" xmlns="http://www.w3.org/2000/svg" xmlns:xlink="http://www.w3.org/1999/xlink" x="0px" y="0px"
	 viewBox="0 0 24 24" style="enable-background:new 0 0 24 24;" xml:space="preserve">
<style type="text/css">
	.st0{fill:none;}
	.st1{fill:#5B6F8B;}
	.st2{fill:#E64B00;}
	.st3{fill:#FFFFFF;}
</style>
<g>
	<path class="st1" d="M22.4294472,19.1452065c-0.0837097-0.3143463-0.1536083-0.6329727-0.2518921-0.9426365
		c-0.0793209-0.2499256-0.3092155-0.3669758-0.5413914-0.3095856c-0.2462368,0.0608597-0.3790493,0.270504-0.3298702,0.5431061
		c0.0314293,0.1742077,0.0812206,0.3451424,0.1237087,0.5173092c0.0504341,0.2044048,0.1018734,0.4085693,0.1655941,0.6637573
		c-0.2795219-0.1625824-0.5091553-0.2945328-0.7372475-0.429081c-1.4592247-0.8607483-2.9167576-1.7243805-4.3791924-2.579628
		c-0.146841-0.0858707-0.2065887-0.1773415-0.2054081-0.3487892c0.0099545-1.4445086,0.0105114-2.8890724,0.015316-4.3336143
		c0.0010357-0.3131781-0.0854568-0.4590797-0.3667698-0.5620899c-1.0618019-0.3888426-2.1226654-0.7805338-3.1900129-1.1536007
		c-0.1855297-0.064846-0.229557-0.1488056-0.2290106-0.3295755c0.0057087-1.9041681,0.0033398-3.8083687,0.0032091-5.7125583
		c-0.0000105-0.0556536,0-0.1113071,0-0.2114458c0.0862532,0.081111,0.1382055,0.1288824,0.1889467,0.1778874
		c0.2395992,0.2313581,0.4694729,0.4739599,0.7214737,0.6908855c0.1741982,0.1499629,0.4041252,0.1192431,0.5645351-0.0354681
		c0.1696682-0.1636524,0.1931715-0.3877835,0.055337-0.5818825c-0.0512428-0.0721593-0.1095381-0.1406178-0.1722431-0.203105
		c-0.5037193-0.501972-1.0077324-1.00366-1.5149441-1.502084c-0.2225914-0.2187381-0.4543209-0.2132032-0.6810932,0.010622
		c-0.1634121,0.1612723-0.3202085,0.3292367-0.4829769,0.4911752c-0.3728275,0.3709495-0.7527065,0.734967-1.1195621,1.1117136
		c-0.2316093,0.2378421-0.2015333,0.5464134,0.0511875,0.7284389c0.1918402,0.1381836,0.3902617,0.1233149,0.6015654-0.0696816
		c0.2669573-0.2438245,0.5225496-0.5001049,0.8207178-0.7873015c0,0.2000265-0.0000544,0.3443565,0,0.4886751
		c0.0006876,1.8300438,0.0005026,3.6600981,0.0041809,5.4901419c0.0002298,0.1167755-0.0179033,0.1871119-0.1451588,0.2315979
		c-1.0464649,0.3658514-2.0891409,0.7425756-3.1350269,1.1101084c-0.4296703,0.1509886-0.5108905,0.2666731-0.5086088,0.7337122
		c0.0068336,1.4002419,0.0068226,2.8005161,0.0146828,4.200758c0.0009608,0.1700058-0.040916,0.2772846-0.2033234,0.371069
		c-1.5696583,0.9064903-3.1330943,1.8237457-4.6974249,2.73946c-0.1375616,0.0805321-0.2687912,0.1718941-0.4588182,0.2941628
		c0.0253594-0.1348438,0.0351737-0.2100372,0.053983-0.282896c0.0738842-0.2862473,0.1577029-0.5701141,0.2243493-0.8579979
		c0.0705438-0.3046646-0.0461121-0.5130539-0.3121305-0.5903645c-0.2371325-0.0689068-0.4667546,0.0626831-0.5505074,0.3536129
		c-0.2105832,0.7315063-0.412848,1.4656334-0.6029186,2.2027073c-0.0770174,0.2986927,0.0429244,0.4925613,0.3400662,0.5748959
		c0.7407638,0.2052765,1.4838094,0.4025974,2.2282739,0.5939999c0.2558765,0.0657845,0.501164-0.0770836,0.5676465-0.3040314
		c0.0687647-0.2347412-0.0552821-0.4732609-0.3111148-0.559742c-0.2166858-0.0732403-0.4415045-0.1221466-0.6618145-0.1850395
		c-0.1708355-0.0487747-0.3402627-0.1025066-0.5508132-0.1663036c0.3511031-0.1959991,0.6507666-0.3561249,0.9435744-0.5279541
		c1.4421074-0.8462849,2.8834617-1.6938896,4.3216181-2.5468674c0.1352358-0.080204,0.2480707-0.0843086,0.3921061-0.031723
		c1.1038418,0.4030762,2.2090607,0.8024979,3.317914,1.1914921c0.1217861,0.042717,0.2828951,0.0516586,0.4025745,0.0098572
		c1.1093664-0.3875751,2.2156219-0.7843971,3.3174448-1.192934c0.182003-0.0674858,0.3115406-0.0449314,0.4707394,0.0501518
		c1.6070366,0.9598408,3.2183094,1.9125843,4.8287315,2.8667603c0.0961533,0.0569744,0.1950912,0.1092319,0.3448582,0.1927547
		c-0.4138298,0.1112862-0.7706757,0.2008362-1.1235371,0.3040428c-0.3174133,0.0928459-0.4716454,0.3207321-0.4010468,0.5657578
		c0.0795403,0.276083,0.310318,0.4032078,0.6298618,0.321104c0.6871853-0.1765785,1.3715191-0.3643131,2.0568275-0.5482044
		c0.4331303-0.1162186,0.5331059-0.2944679,0.4146156-0.7365494C22.6441021,19.9444942,22.5359173,19.5450745,22.4294472,19.1452065
		z M11.541029,17.3193321c0,0.0288105-0.0053711,0.0576191-0.0112877,0.1171913
		c-0.2512808-0.0859909-0.4917974-0.1640778-0.7293348-0.2503738c-0.6591396-0.2394695-1.3182678-0.4791565-1.9733906-0.7292576
		c-0.0596161-0.0227623-0.1284237-0.1207066-0.1289806-0.1842957c-0.0105124-1.2061872-0.0117245-2.4124718-0.0130234-3.6187353
		c-0.0000553-0.0478373,0.0181437-0.0956955,0.0329351-0.1687069c0.424758,0.1532602,0.8313837,0.3010283,1.2387619,0.4466791
		c0.4726505,0.1689901,0.9482908,0.3300447,1.4165192,0.5103884c0.0724869,0.0279255,0.159646,0.1401052,0.1602678,0.2139788
		C11.5436926,14.8771791,11.5411711,16.0982666,11.541029,17.3193321z M11.246027,12.408083
		c-0.5091333-0.2292185-1.0495434-0.3889408-1.6358795-0.6007576c0.4050102-0.1451483,0.7536678-0.2719784,1.1036568-0.3950205
		c0.3757973-0.1321144,0.7504911-0.2682352,1.1307745-0.3861465c0.1135006-0.0351954,0.2564001-0.0511446,0.3649673-0.0143442
		c0.6986256,0.236805,1.3915634,0.4903898,2.0857239,0.7402725c0.024518,0.0088205,0.0422363,0.0365276,0.0846262,0.0748777
		c-0.544569,0.1977129-1.084815,0.3571186-1.5924091,0.5882578C12.2572956,12.6566563,11.7731066,12.645401,11.246027,12.408083z
		 M15.1589661,16.5046196c-0.8654537,0.3012142-1.7268915,0.613966-2.5900421,0.9218273
		c-0.0117788,0.0042038-0.0280447-0.004137-0.0520401-0.0083389c-0.0032969-0.0555878-0.0096827-0.1131516-0.0097046-0.1707153
		c-0.0005569-1.192934-0.0025873-2.3858795,0.0049448-3.5787582c0.0004692-0.0743103,0.060544-0.1934767,0.1206846-0.2153645
		c0.854188-0.3109083,1.7130814-0.6088905,2.5712986-0.9086847c0.0401182-0.0140066,0.0844946-0.0157967,0.1478014-0.0269642
		c0,0.0789928,0,0.144537,0,0.2100811c0.0000429,1.1632948-0.0029697,2.3266001,0.0037441,3.489852
		C15.3565588,16.3752136,15.3122482,16.4512806,15.1589661,16.5046196z"/>
</g>
</svg>
