<?xml version="1.0" encoding="utf-8"?>
<!-- Generator: Adobe Illustrator 27.5.0, SVG Export Plug-In . SVG Version: 6.00 Build 0)  -->
<svg version="1.1" id="Livello_1" xmlns="http://www.w3.org/2000/svg" xmlns:xlink="http://www.w3.org/1999/xlink" x="0px" y="0px"
	 viewBox="0 0 24 24" style="enable-background:new 0 0 24 24;" xml:space="preserve">
<style type="text/css">
	.st0{fill:none;}
	.st1{fill:#5B6F8B;}
	.st2{fill:#E64B00;}
</style>
<g>
	<g>
		<path class="st2" d="M8.2086267,17.2209129H8.2050285l-4.4696937,4.3992043
			c2.1462021-0.0001278,11.5955391-0.0003395,11.5955391-0.0003395s-0.0000515-1.9341793,0.0002136-4.3971081
			C12.0553951,17.2219658,8.3333941,17.2209492,8.2086267,17.2209129z"/>
		<path class="st2" d="M17.0404224,17.2268581c-0.0014,1.2940025-0.0020981,2.4384575-0.0014629,3.210535l3.212719-3.2103863
			C20.10783,17.2273121,18.7729244,17.2271767,17.0404224,17.2268581z"/>
	</g>
	<path class="st1" d="M23.1913548,1.770704c0.0035648-0.3548983-0.0906887-0.6318847-0.2801247-0.8232316
		c-0.2824154-0.2852811-0.6898937-0.2852811-0.823782-0.2852811h-0.0043716
		c-1.4227753,0.0026318-4.2345467,0.0044568-6.837616,0.0044568c-3.7171202,0-6.3371134-0.0034388-7.1882715-0.009441
		L8.0459023,0.6571643c-0.3886757,0-0.7159953,0.1368136-1.0007033,0.418254
		c-0.5453501,0.539054-1.8815565,1.8661335-3.1737716,3.1495264C2.6799695,5.4082499,1.5545907,6.52595,1.1058866,6.9696469
		C0.9117395,7.1615872,0.8133885,7.4122176,0.8135824,7.7146015c0.0012318,1.9651375,0.0026347,11.718792-0.0050299,14.573597
		c-0.0009581,0.3651657,0.1268195,0.6566219,0.3797286,0.8661766c0.1924932,0.1596012,0.4339509,0.1778927,0.5288631,0.1783619
		c0.4921142,0.0023746,2.6030898,0.0028419,5.0473847,0.0033493c3.143456,0.000679,7.0556521,0.0015278,9.155508,0.0067501
		h0.0048361c0.4343424,0,0.767724-0.1425877,1.0809908-0.4623489c0.7274075-0.7426014,2.8822613-2.8837452,4.4556446-4.447113
		c0.6273403-0.6233101,1.1457043-1.1384068,1.4114876-1.4038086c0.2071743-0.2069645,0.3119106-0.459631,0.3112717-0.7510014
		C23.1790066,13.8797855,23.1673355,4.1549449,23.1913548,1.770704z M6.9560409,3.5704651
		C6.9549232,3.7575977,6.9536285,5.0599866,6.9522085,6.7634954C6.9540677,6.7634983,6.9559612,6.7635012,6.9578204,6.763504
		V6.764123H6.9522085c0-0.0002084,0-0.0004191,0-0.0006275C5.6685023,6.7617502,4.5203118,6.7602277,3.7408438,6.759201
		L6.9560409,3.5704651z M2.5314224,8.4929123l2.9393742-0.0001907c0.2605166-0.0000143,0.5202231-0.0000257,0.7794623-0.0000401
		V8.493269h0.7005582c-0.0024405,3.0750637-0.005178,6.6109371-0.008018,7.5180283
		c-0.4657841,0.4696064-3.1047904,3.0596867-4.4117417,4.3416176C2.5311029,17.9363956,2.5311885,11.8410854,2.5314224,8.4929123z
		 M15.3310738,17.4746056c-0.0002337,2.3415871-0.0001879,4.1451721-0.0001879,4.1451721s-9.449337,0.0002117-11.5955391,0.0003395
		c1.1659546-1.1598377,3.396513-3.3794937,4.3781581-4.3617306c0.0332699-0.0332699,0.043541-0.0374737,0.0915356-0.0374737
		c0,0,0.0014601,0,0.0035982,0l7.1224356,0.0013313V17.4746056z M15.3313274,15.5077553l-6.6689034,0.0002422L8.662384,15.1227999
		c-0.0001144-0.4864082,0.0005131-3.5991488,0.0011921-6.6296654c0.0005932,0,0.0011864,0,0.0017796,0
		c0-0.0002108,0-0.0004158,0-0.0006275c2.1949263-0.0002136,4.3858223-0.0006437,6.6687126-0.0017595
		C15.3325424,10.1579752,15.3317442,12.9356117,15.3313274,15.5077553z M15.853961,6.751246
		c-0.017314,0.0173135-0.0259714,0.0259933-0.0850439,0.0259933c-0.6385059-0.00211-3.9666586-0.0070314-7.104948-0.0113916
		c0,0.0002055,0,0.0004191,0,0.0006247c-0.000536,0-0.0010605-0.0000029-0.0015965-0.0000029V6.7658448
		c0.000536,0,0.0010605,0.0000029,0.0015965,0.0000029c0.000514-2.2424316,0.0009813-4.1223974,0.0010843-4.3844166
		c1.3833113,0.0003819,8.8065119,0.006407,11.5805979,0.0086997C18.9226456,3.7024856,16.2581291,6.3460798,15.853961,6.751246z
		 M17.0389652,20.4416904c-0.0000019-0.0026608-0.0000019-0.0054722-0.0000057-0.0081406
		c-0.0006351-0.7720776,0.0000629-1.9165325,0.0014629-3.210535c-0.0005627,0-0.0011387,0-0.0016994,0v-0.0004501h0.0016994
		l3.211256,0.0005989C19.4348145,18.0427837,18.092329,19.3890476,17.0389652,20.4416904z M17.0425377,15.5076923
		c0.0023766-1.7455215,0.0054359-3.5783787,0.007885-5.0483055c0.0016956-0.9996605,0.0031395-1.8582411,0.0039463-2.4537125
		c0.000042-0.0070004,0.0010185-0.0152125,0.0022926-0.0223842c0.5534592-0.5649619,3.1218567-3.1142626,4.4058647-4.3877239
		c-0.0000439,2.4405138-0.0001278,8.6000757,0.000042,11.9119644L17.0425377,15.5076923z"/>
</g>
</svg>
